# xmcd
#
# Track frame offsets:
#	150
#	14560
#	28745
#	57145
#	80460
#	118595
#	145650
#	150375
#	161035
#	166370
#
# Disc length: 2632 seconds
#
# Revision: 1
# Processed by: cddbd v1.5.1PL0 Copyright (c) Steve Scherf et al.
# Submitted via: EasyCDDAExtractor 5.1.0
#
DISCID=770a460a
DTITLE=Black Sabbath - In For The Kill Toronto 04-04-86 Disc 1
DYEAR=1986
DGENRE=Hard Rock
TTITLE0=Supertzar
TTITLE1=The Mob Rules
TTITLE2=Children Of The Sea
TTITLE3=Danger Zone
TTITLE4=War Pigs
TTITLE5=Heart Like A Wheel
TTITLE6=Symptom Of The Universe
TTITLE7=Sweet Leaf
TTITLE8=Zero The Hero
TTITLE9=Sphinx - Seventh Star
EXTD=
EXTT0=
EXTT1=
EXTT2=
EXTT3=
EXTT4=
EXTT5=
EXTT6=
EXTT7=
EXTT8=
EXTT9=
PLAYORDER=
